<svg id="b0a787da-4451-4aba-95e9-efb83c6bf239" xmlns="http://www.w3.org/2000/svg" viewBox="0 0 349 80"><defs><style>.\33 2d00a99-dec3-492a-8206-ddcc6181d5b4{fill:#195075;}.\32 4431d0a-811b-4dda-83c3-214767c8eae3{fill:#bf4136;}</style></defs><path class="32d00a99-dec3-492a-8206-ddcc6181d5b4" d="M30.11,55.38a31.76,31.76,0,0,1-14.62-3.24,24,24,0,0,1-9.94-9.32A27.72,27.72,0,0,1,2,28.47,28.23,28.23,0,0,1,5.4,14.52a25,25,0,0,1,9.85-9.77A29.66,29.66,0,0,1,30,1.16a42.68,42.68,0,0,1,9.45,1.1,31.86,31.86,0,0,1,8,2.79L45.36,20.1a30.08,30.08,0,0,0-13.09-3q-5.9,0-9.3,3a10.33,10.33,0,0,0-3.39,8.17A10.21,10.21,0,0,0,23,36.49q3.45,2.94,9.55,2.94a34.88,34.88,0,0,0,13.38-3l1.78,14.65a30.76,30.76,0,0,1-8.12,3.14A39.52,39.52,0,0,1,30.11,55.38Z"/><path class="32d00a99-dec3-492a-8206-ddcc6181d5b4" d="M72.63,56.38A21.46,21.46,0,0,1,60.82,53a23.13,23.13,0,0,1-8.27-9.52,31.71,31.71,0,0,1-3-14.25,31.84,31.84,0,0,1,3-13.81,24.71,24.71,0,0,1,8.37-10,21.06,21.06,0,0,1,12.3-3.74,17.88,17.88,0,0,1,8.37,2,15.63,15.63,0,0,1,6.1,5.58l.19-6h16.64V54.78H87.78l-.19-5.88a15.09,15.09,0,0,1-6.15,5.53A19.41,19.41,0,0,1,72.63,56.38Zm4.82-16a9.43,9.43,0,0,0,7.38-3.19,11.81,11.81,0,0,0,2.86-8.17,11.8,11.8,0,0,0-2.86-8.17,9.43,9.43,0,0,0-7.38-3.19A9.57,9.57,0,0,0,70,20.9a11.64,11.64,0,0,0-2.9,8.17A11.65,11.65,0,0,0,70,37.24,9.57,9.57,0,0,0,77.45,40.43Z"/><path class="32d00a99-dec3-492a-8206-ddcc6181d5b4" d="M108.44,3.05h17.23l.19,6.28a13.67,13.67,0,0,1,5.76-5.83,18.49,18.49,0,0,1,8.91-2,17.06,17.06,0,0,1,8.76,2.19,15.5,15.5,0,0,1,5.9,6.28,15.25,15.25,0,0,1,6.3-6.23A19.78,19.78,0,0,1,171,1.46q8.85,0,13.43,5.53t4.58,16.2V54.48H171.43V26.58q0-4.69-1.62-6.93a5.84,5.84,0,0,0-5.07-2.24A6.2,6.2,0,0,0,159.42,20c-1.24,1.69-1.87,4.13-1.87,7.32V54.48H139.94V26.58q0-4.69-1.63-6.93a5.71,5.71,0,0,0-5-2.24A6.28,6.28,0,0,0,127.93,20q-1.87,2.54-1.87,7.32V54.48H108.44Z"/><path class="32d00a99-dec3-492a-8206-ddcc6181d5b4" d="M216.25,55.28q-12,0-18.3-6.18t-6.3-18V2.26h17.71v28.3q0,4.48,1.68,6.63t5.31,2.14a6,6,0,0,0,5.07-2.09Q223,35.16,223,30.56V2.26h17.72v28.8q0,12-6.25,18.09T216.25,55.28Z"/><path class="32d00a99-dec3-492a-8206-ddcc6181d5b4" d="M265.9,79a54.25,54.25,0,0,1-11-1.19A34.33,34.33,0,0,1,246,74.92l1.77-15.65a29.76,29.76,0,0,0,7.48,2.94,33,33,0,0,0,8.17,1.14q14.87,0,14.87-13.25V47.71a15.65,15.65,0,0,1-6.21,4.93,20.7,20.7,0,0,1-8.66,1.74,22,22,0,0,1-11.71-3.19A22.63,22.63,0,0,1,243.41,42a29.73,29.73,0,0,1-3.1-13.85,31.77,31.77,0,0,1,3-13.8,24.66,24.66,0,0,1,8.36-10A21.16,21.16,0,0,1,263.94.66a17.88,17.88,0,0,1,8.36,2,15.49,15.49,0,0,1,6.1,5.58l.2-6h16.63V49.5q0,14.55-7.43,22T265.9,79Zm2.37-40.56a9.85,9.85,0,0,0,7.38-2.94A10.37,10.37,0,0,0,278.5,28a11.81,11.81,0,0,0-2.85-8.17,9.46,9.46,0,0,0-7.38-3.19,9.57,9.57,0,0,0-7.43,3.19A11.66,11.66,0,0,0,257.93,28a10.25,10.25,0,0,0,2.91,7.53A10,10,0,0,0,268.27,38.44Z"/><path class="32d00a99-dec3-492a-8206-ddcc6181d5b4" d="M320.75,55.28a29.34,29.34,0,0,1-14-3.39,25.85,25.85,0,0,1-10.13-9.67A27,27,0,0,1,292.8,28a27.51,27.51,0,0,1,3.49-13.7,26,26,0,0,1,9.89-9.92A28.64,28.64,0,0,1,320.75.66a29.27,29.27,0,0,1,14,3.39,25.49,25.49,0,0,1,10.09,9.67A27.33,27.33,0,0,1,348.6,28a27.66,27.66,0,0,1-3.44,13.66,26,26,0,0,1-9.85,9.91A28.24,28.24,0,0,1,320.75,55.28Zm0-16a9.43,9.43,0,0,0,7.38-3.19A11.79,11.79,0,0,0,331,28a11.81,11.81,0,0,0-2.85-8.17,9.43,9.43,0,0,0-7.38-3.19,9.57,9.57,0,0,0-7.43,3.19A11.66,11.66,0,0,0,310.41,28a11.64,11.64,0,0,0,2.91,8.17A9.57,9.57,0,0,0,320.75,39.33Z"/><path class="24431d0a-811b-4dda-83c3-214767c8eae3" d="M11.31,64.85h2.42l5.51,13.73h-2.4l-1.45-3.85H9.54L8.1,78.58H5.8Zm3.4,8.09-2.26-6-2.24,6Z"/><path class="24431d0a-811b-4dda-83c3-214767c8eae3" d="M25.92,78.77a8,8,0,0,1-3.71-.84,6.38,6.38,0,0,1-2.58-2.44,7.09,7.09,0,0,1-.95-3.69,7.24,7.24,0,0,1,.91-3.65,6.67,6.67,0,0,1,2.6-2.56,8,8,0,0,1,3.89-.94,8.93,8.93,0,0,1,2.27.31,8.18,8.18,0,0,1,2,.81l-.38,2a12.3,12.3,0,0,0-2.05-.79A7,7,0,0,0,26,66.68a5.28,5.28,0,0,0-2.57.61,4.4,4.4,0,0,0-1.78,1.77A5.28,5.28,0,0,0,21,71.73a5.52,5.52,0,0,0,.6,2.63,4.36,4.36,0,0,0,1.75,1.76,5.55,5.55,0,0,0,2.7.63,8.42,8.42,0,0,0,2-.27,9.94,9.94,0,0,0,2.08-.76l.24,2A9.6,9.6,0,0,1,25.92,78.77Z"/><path class="24431d0a-811b-4dda-83c3-214767c8eae3" d="M31.93,64.85h8.8v1.9H34.1v3.88H40v1.9H34.1v4.15H41v1.9H31.93Z"/><path class="24431d0a-811b-4dda-83c3-214767c8eae3" d="M46.53,78.87A10.37,10.37,0,0,1,44,78.55a7,7,0,0,1-2-.8l.25-2a8.34,8.34,0,0,0,2,.87,7.63,7.63,0,0,0,2.15.32,3.72,3.72,0,0,0,2.14-.52,1.68,1.68,0,0,0,.76-1.48,1.58,1.58,0,0,0-.62-1.31,7.86,7.86,0,0,0-2.34-1A7.77,7.77,0,0,1,43.2,70.9a3.52,3.52,0,0,1-.94-2.56,3.44,3.44,0,0,1,.57-2A3.76,3.76,0,0,1,44.48,65,6.09,6.09,0,0,1,47,64.56a9.09,9.09,0,0,1,2.11.26,8,8,0,0,1,1.88.72l-.35,2a7.74,7.74,0,0,0-1.76-.73,6.76,6.76,0,0,0-1.83-.27,3.35,3.35,0,0,0-1.93.47,1.56,1.56,0,0,0-.67,1.36,1.6,1.6,0,0,0,.25.94,2.31,2.31,0,0,0,.81.65,12,12,0,0,0,1.59.61,11.72,11.72,0,0,1,2.68,1.16,4.15,4.15,0,0,1,1.4,1.4,3.75,3.75,0,0,1,.42,1.81A3.64,3.64,0,0,1,51,77a4,4,0,0,1-1.76,1.39A6.79,6.79,0,0,1,46.53,78.87Z"/><path class="24431d0a-811b-4dda-83c3-214767c8eae3" d="M56.93,78.87a10.37,10.37,0,0,1-2.49-.32,7.09,7.09,0,0,1-2-.8l.26-2a8.26,8.26,0,0,0,2,.87,7.68,7.68,0,0,0,2.15.32A3.78,3.78,0,0,0,59,76.39a1.7,1.7,0,0,0,.75-1.48,1.58,1.58,0,0,0-.62-1.31,7.73,7.73,0,0,0-2.34-1A7.77,7.77,0,0,1,53.6,70.9a3.52,3.52,0,0,1-.93-2.56,3.44,3.44,0,0,1,.56-2A3.76,3.76,0,0,1,54.88,65a6.09,6.09,0,0,1,2.52-.48,9.09,9.09,0,0,1,2.11.26,7.83,7.83,0,0,1,1.88.72l-.35,2a7.74,7.74,0,0,0-1.76-.73,6.76,6.76,0,0,0-1.83-.27,3.35,3.35,0,0,0-1.93.47,1.56,1.56,0,0,0-.67,1.36,1.6,1.6,0,0,0,.25.94,2.26,2.26,0,0,0,.82.65,11,11,0,0,0,1.59.61,11.82,11.82,0,0,1,2.67,1.16,4.15,4.15,0,0,1,1.4,1.4A3.75,3.75,0,0,1,62,74.91,3.64,3.64,0,0,1,61.4,77a4,4,0,0,1-1.76,1.39A6.79,6.79,0,0,1,56.93,78.87Z"/><path class="24431d0a-811b-4dda-83c3-214767c8eae3" d="M69.91,78.87a7.23,7.23,0,0,1-3.57-.9,6.77,6.77,0,0,1-2.61-2.54,7.12,7.12,0,0,1-1-3.72,7.22,7.22,0,0,1,.9-3.54,7.1,7.1,0,0,1,6.25-3.61,7.28,7.28,0,0,1,3.59.9A6.72,6.72,0,0,1,76.1,68a7.48,7.48,0,0,1,.08,7.26,7,7,0,0,1-2.56,2.62A7.09,7.09,0,0,1,69.91,78.87Zm0-2a4.79,4.79,0,0,0,2.43-.63,4.53,4.53,0,0,0,1.74-1.81,5.36,5.36,0,0,0,.65-2.69,5.7,5.7,0,0,0-.59-2.59,4.84,4.84,0,0,0-6.66-1.89A4.57,4.57,0,0,0,65.75,69a5.44,5.44,0,0,0-.64,2.67,5.71,5.71,0,0,0,.59,2.6,4.6,4.6,0,0,0,4.21,2.53ZM70.29,61h2.6L70.31,63.5h-2Z"/><path class="24431d0a-811b-4dda-83c3-214767c8eae3" d="M78.42,64.85h4.22A5.28,5.28,0,0,1,86.23,66a4.24,4.24,0,0,1,.67,5.33,4,4,0,0,1-1.78,1.5l3.81,5.75H86.27L83,73.36a8.12,8.12,0,0,1-.9,0H80.58v5.17H78.42Zm2.16,6.72h1.68c2.06,0,3.09-.81,3.09-2.44a2.21,2.21,0,0,0-.75-1.82,3.45,3.45,0,0,0-2.23-.62H80.58Z"/><path class="24431d0a-811b-4dda-83c3-214767c8eae3" d="M89.94,64.85h2.25V78.58H89.94Z"/><path class="24431d0a-811b-4dda-83c3-214767c8eae3" d="M100.68,78.87a7.23,7.23,0,0,1-3.57-.9,6.75,6.75,0,0,1-2.6-2.54,7.13,7.13,0,0,1-1-3.72,7.22,7.22,0,0,1,.9-3.54A7,7,0,0,1,97,65.56a6.94,6.94,0,0,1,3.7-1,7.34,7.34,0,0,1,3.6.9,6.79,6.79,0,0,1,2.6,2.53,7.52,7.52,0,0,1,.07,7.26,6.92,6.92,0,0,1-2.56,2.62A7.09,7.09,0,0,1,100.68,78.87Zm0-2a4.79,4.79,0,0,0,2.43-.63,4.53,4.53,0,0,0,1.74-1.81,5.36,5.36,0,0,0,.65-2.69,5.7,5.7,0,0,0-.59-2.59,4.84,4.84,0,0,0-6.66-1.89A4.57,4.57,0,0,0,96.52,69a5.44,5.44,0,0,0-.64,2.67,5.71,5.71,0,0,0,.59,2.6,4.6,4.6,0,0,0,4.21,2.53Z"/><path class="24431d0a-811b-4dda-83c3-214767c8eae3" d="M113.07,78.87a10.23,10.23,0,0,1-2.48-.32,7,7,0,0,1-2-.8l.26-2a8.26,8.26,0,0,0,2,.87,7.68,7.68,0,0,0,2.15.32,3.75,3.75,0,0,0,2.15-.52,1.71,1.71,0,0,0,.76-1.48,1.59,1.59,0,0,0-.63-1.31,7.73,7.73,0,0,0-2.34-1,7.65,7.65,0,0,1-3.17-1.66,3.48,3.48,0,0,1-.94-2.56,3.44,3.44,0,0,1,.57-2A3.73,3.73,0,0,1,111,65a6.16,6.16,0,0,1,2.52-.48,9,9,0,0,1,2.11.26,7.83,7.83,0,0,1,1.88.72l-.34,2a7.94,7.94,0,0,0-1.76-.73,6.89,6.89,0,0,0-1.84-.27,3.37,3.37,0,0,0-1.93.47,1.59,1.59,0,0,0-.67,1.36,1.61,1.61,0,0,0,.26.94,2.14,2.14,0,0,0,.81.65,11,11,0,0,0,1.59.61,11.82,11.82,0,0,1,2.67,1.16,4.06,4.06,0,0,1,1.4,1.4,3.75,3.75,0,0,1,.42,1.81,3.64,3.64,0,0,1-.6,2.07,4,4,0,0,1-1.75,1.39A6.84,6.84,0,0,1,113.07,78.87Z"/><path class="24431d0a-811b-4dda-83c3-214767c8eae3" d="M122.48,64.85h4.26a5.84,5.84,0,0,1,2.53.53A4.12,4.12,0,0,1,131,66.91a4.25,4.25,0,0,1,.62,2.33,4.38,4.38,0,0,1-.59,2.3,4.13,4.13,0,0,1-1.71,1.57,5.59,5.59,0,0,1-2.59.57h-2.08v4.9h-2.16Zm2.16,7h1.76a3.35,3.35,0,0,0,2.23-.65,2.36,2.36,0,0,0,.76-1.91,2.4,2.4,0,0,0-.76-1.93,3.35,3.35,0,0,0-2.23-.66h-1.76Z"/><path class="24431d0a-811b-4dda-83c3-214767c8eae3" d="M135.93,64.85h2.42l5.51,13.73h-2.4L140,74.73h-5.85l-1.44,3.85h-2.3Zm3.4,8.09-2.26-6-2.24,6Z"/><path class="24431d0a-811b-4dda-83c3-214767c8eae3" d="M144.69,64.85h4.22A5.28,5.28,0,0,1,152.5,66a3.91,3.91,0,0,1,1.33,3.11,4,4,0,0,1-2.44,3.72l3.81,5.75h-2.66l-3.23-5.22a7.85,7.85,0,0,1-.9,0h-1.55v5.17h-2.17Zm2.17,6.72h1.67c2.06,0,3.09-.81,3.09-2.44a2.21,2.21,0,0,0-.75-1.82,3.45,3.45,0,0,0-2.23-.62h-1.78Z"/><path class="24431d0a-811b-4dda-83c3-214767c8eae3" d="M160.49,64.85h2.42l5.51,13.73H166l-1.44-3.85h-5.85l-1.45,3.85H155Zm3.39,8.09-2.25-6-2.24,6Z"/><path class="24431d0a-811b-4dda-83c3-214767c8eae3" d="M171.87,64.85h2.45l4.75,8.63,4.73-8.63h2.4V78.58h-2.15V68.17L180,75.52H178.1L174,68.17V78.58h-2.16Z"/><path class="24431d0a-811b-4dda-83c3-214767c8eae3" d="M194.69,78.87a7.23,7.23,0,0,1-3.57-.9,6.77,6.77,0,0,1-2.61-2.54,7.12,7.12,0,0,1-1-3.72,7.22,7.22,0,0,1,.9-3.54,7.1,7.1,0,0,1,6.25-3.61,7.28,7.28,0,0,1,3.59.9,6.72,6.72,0,0,1,2.6,2.53,7.48,7.48,0,0,1,.08,7.26,7,7,0,0,1-2.56,2.62A7.09,7.09,0,0,1,194.69,78.87Zm0-2a4.79,4.79,0,0,0,2.43-.63,4.53,4.53,0,0,0,1.74-1.81,5.36,5.36,0,0,0,.65-2.69,5.7,5.7,0,0,0-.59-2.59,4.84,4.84,0,0,0-6.66-1.89A4.57,4.57,0,0,0,190.53,69a5.44,5.44,0,0,0-.64,2.67,5.71,5.71,0,0,0,.59,2.6,4.6,4.6,0,0,0,4.21,2.53ZM195.07,61h2.6l-2.58,2.48h-2Z"/><path class="24431d0a-811b-4dda-83c3-214767c8eae3" d="M201.34,64.85h2.49l4,11.31,4-11.31h2.4L209,78.58h-2.42Z"/><path class="24431d0a-811b-4dda-83c3-214767c8eae3" d="M215.13,64.85h8.8v1.9H217.3v3.88h5.9v1.9h-5.9v4.15h6.9v1.9h-9.07Z"/><path class="24431d0a-811b-4dda-83c3-214767c8eae3" d="M225.84,64.85h2.26V78.58h-2.26Z"/><path class="24431d0a-811b-4dda-83c3-214767c8eae3" d="M234.13,78.87a10.29,10.29,0,0,1-2.48-.32,6.86,6.86,0,0,1-2-.8l.25-2a8.26,8.26,0,0,0,2,.87,7.73,7.73,0,0,0,2.15.32,3.75,3.75,0,0,0,2.15-.52,1.71,1.71,0,0,0,.76-1.48,1.59,1.59,0,0,0-.63-1.31,7.77,7.77,0,0,0-2.33-1,7.63,7.63,0,0,1-3.18-1.66,3.48,3.48,0,0,1-.94-2.56,3.44,3.44,0,0,1,.57-2A3.73,3.73,0,0,1,232.08,65a6.16,6.16,0,0,1,2.52-.48,9,9,0,0,1,2.11.26,7.83,7.83,0,0,1,1.88.72l-.34,2a7.94,7.94,0,0,0-1.76-.73,6.89,6.89,0,0,0-1.84-.27,3.37,3.37,0,0,0-1.93.47,1.59,1.59,0,0,0-.67,1.36,1.61,1.61,0,0,0,.26.94,2.22,2.22,0,0,0,.81.65,11,11,0,0,0,1.59.61,11.82,11.82,0,0,1,2.67,1.16,4.06,4.06,0,0,1,1.4,1.4,3.75,3.75,0,0,1,.42,1.81,3.64,3.64,0,0,1-.6,2.07,4,4,0,0,1-1.75,1.39A6.84,6.84,0,0,1,234.13,78.87Z"/></svg>