<svg id="f0d2abd4-ad94-493e-81e9-5443602c29df" xmlns="http://www.w3.org/2000/svg" viewBox="0 0 352 80"><defs><style>.f09d7257-1006-4299-805a-5b7345d700f6{fill:#120701;}.\36 d17d8d2-c6b5-4f98-9b66-cac245d63627{fill:#838b8c;}</style></defs><path class="f09d7257-1006-4299-805a-5b7345d700f6" d="M29,55.53a32,32,0,0,1-14.72-3.26,24.08,24.08,0,0,1-10-9.39A27.88,27.88,0,0,1,.69,28.43a28.28,28.28,0,0,1,3.47-14,25.15,25.15,0,0,1,9.91-9.84A29.85,29.85,0,0,1,28.94.93,43.2,43.2,0,0,1,38.45,2a32.2,32.2,0,0,1,8,2.81L44.4,20a30.35,30.35,0,0,0-13.18-3q-6,0-9.37,3a10.4,10.4,0,0,0-3.42,8.23,10.26,10.26,0,0,0,3.47,8.28q3.47,3,9.61,3a35.16,35.16,0,0,0,13.48-3l1.79,14.76a31.42,31.42,0,0,1-8.18,3.16A40,40,0,0,1,29,55.53Z"/><path class="f09d7257-1006-4299-805a-5b7345d700f6" d="M71.86,56.54A21.61,21.61,0,0,1,60,53.17a23.21,23.21,0,0,1-8.32-9.58,32,32,0,0,1-3.08-14.36,31.94,31.94,0,0,1,3-13.9A24.92,24.92,0,0,1,60,5.29,21.28,21.28,0,0,1,72.35,1.53a18,18,0,0,1,8.43,2,15.7,15.7,0,0,1,6.14,5.62l.2-6h16.75V54.93H87.12L86.92,49a15.23,15.23,0,0,1-6.19,5.57A19.64,19.64,0,0,1,71.86,56.54Zm4.85-16.06a9.51,9.51,0,0,0,7.44-3.22A11.89,11.89,0,0,0,87,29a11.91,11.91,0,0,0-2.87-8.23,9.54,9.54,0,0,0-7.44-3.21,9.66,9.66,0,0,0-7.48,3.21A11.76,11.76,0,0,0,66.3,29a11.74,11.74,0,0,0,2.93,8.23A9.64,9.64,0,0,0,76.71,40.48Z"/><path class="f09d7257-1006-4299-805a-5b7345d700f6" d="M107.92,2.83h17.35l.2,6.33a13.69,13.69,0,0,1,5.8-5.87,18.62,18.62,0,0,1,9-2.06,17.14,17.14,0,0,1,8.82,2.21A15.66,15.66,0,0,1,155,9.76a15.27,15.27,0,0,1,6.34-6.27A19.78,19.78,0,0,1,171,1.23q8.92,0,13.53,5.57t4.61,16.31V54.63H171.36V26.52c0-3.14-.54-5.47-1.63-7a5.89,5.89,0,0,0-5.11-2.26,6.23,6.23,0,0,0-5.35,2.56q-1.89,2.55-1.89,7.38v27.4H139.64V26.52c0-3.14-.54-5.47-1.63-7a5.76,5.76,0,0,0-5-2.26,6.33,6.33,0,0,0-5.45,2.56c-1.26,1.7-1.88,4.16-1.88,7.38v27.4H107.92Z"/><path class="f09d7257-1006-4299-805a-5b7345d700f6" d="M216.5,55.43q-12.09,0-18.44-6.22T191.72,31V2h17.84V30.54q0,4.51,1.69,6.67t5.35,2.16a6,6,0,0,0,5.1-2.11q1.63-2.1,1.64-6.72V2h17.84V31q0,12-6.29,18.22T216.5,55.43Z"/><path class="f09d7257-1006-4299-805a-5b7345d700f6" d="M266.5,79.32a54.33,54.33,0,0,1-11.1-1.2,34.8,34.8,0,0,1-8.92-2.91l1.79-15.76a29.48,29.48,0,0,0,7.53,3A32.92,32.92,0,0,0,264,63.56q15,0,15-13.35V47.8a15.52,15.52,0,0,1-6.24,5A20.9,20.9,0,0,1,264,54.53a22.16,22.16,0,0,1-11.8-3.21,22.9,22.9,0,0,1-8.38-9.24,29.88,29.88,0,0,1-3.12-13.95,31.91,31.91,0,0,1,3-13.9,24.92,24.92,0,0,1,8.42-10A21.28,21.28,0,0,1,264.52.43a18,18,0,0,1,8.43,2,15.7,15.7,0,0,1,6.14,5.62l.2-6H296V49.61q0,14.66-7.48,22.18T266.5,79.32Zm2.38-40.85a9.94,9.94,0,0,0,7.44-3,10.46,10.46,0,0,0,2.87-7.58,11.89,11.89,0,0,0-2.87-8.23,9.54,9.54,0,0,0-7.44-3.21,9.66,9.66,0,0,0-7.48,3.21,11.74,11.74,0,0,0-2.92,8.23,10.34,10.34,0,0,0,2.92,7.58A10.07,10.07,0,0,0,268.88,38.47Z"/><path class="f09d7257-1006-4299-805a-5b7345d700f6" d="M321.74,55.43A29.57,29.57,0,0,1,307.61,52a26.17,26.17,0,0,1-10.21-9.74,27.25,27.25,0,0,1-3.81-14.35,27.67,27.67,0,0,1,3.52-13.8,26.11,26.11,0,0,1,10-10A28.77,28.77,0,0,1,321.74.43a29.45,29.45,0,0,1,14.12,3.41A25.75,25.75,0,0,1,346,13.57a27.56,27.56,0,0,1,3.77,14.36,27.79,27.79,0,0,1-3.47,13.75,26.32,26.32,0,0,1-9.91,10A28.55,28.55,0,0,1,321.74,55.43Zm0-16.06a9.51,9.51,0,0,0,7.43-3.21,11.87,11.87,0,0,0,2.88-8.23,11.85,11.85,0,0,0-2.88-8.23,9.51,9.51,0,0,0-7.43-3.21,9.68,9.68,0,0,0-7.49,3.21,11.74,11.74,0,0,0-2.92,8.23,11.76,11.76,0,0,0,2.92,8.23A9.68,9.68,0,0,0,321.74,39.37Z"/><path class="6d17d8d2-c6b5-4f98-9b66-cac245d63627" d="M12.61,65H10L4.4,79H6.94L8.4,75.12h5.74l1.43,3.81,0,.07h2.65L12.64,65Zm.76,8.15H9.15l2.1-5.63Z"/><path class="6d17d8d2-c6b5-4f98-9b66-cac245d63627" d="M29.08,75.92a10.45,10.45,0,0,1-2.07.76,6.42,6.42,0,0,1-4.7-.35,4.4,4.4,0,0,1-1.72-1.73A5.54,5.54,0,0,1,20,72a5.27,5.27,0,0,1,.64-2.64,4.31,4.31,0,0,1,1.75-1.74A5.27,5.27,0,0,1,24.93,67a7.36,7.36,0,0,1,1.85.25,12.08,12.08,0,0,1,2,.8l.12.06L29.37,66l-.06,0a7.82,7.82,0,0,0-2-.83A8.81,8.81,0,0,0,25,64.76a8.15,8.15,0,0,0-4,1,6.84,6.84,0,0,0-2.66,2.62,7.45,7.45,0,0,0-.93,3.73,7.29,7.29,0,0,0,1,3.77A6.46,6.46,0,0,0,21,78.33a8.08,8.08,0,0,0,3.79.87,9.64,9.64,0,0,0,4.59-1.11l.07,0-.26-2.2Z"/><polygon class="6d17d8d2-c6b5-4f98-9b66-cac245d63627" points="33.16 72.91 39.11 72.91 39.11 70.78 33.16 70.78 33.16 67.08 39.84 67.08 39.84 64.97 30.77 64.97 30.77 79 40.11 79 40.11 76.88 33.16 76.88 33.16 72.91"/><path class="6d17d8d2-c6b5-4f98-9b66-cac245d63627" d="M48.9,71.88a11.63,11.63,0,0,0-2.72-1.18,11.24,11.24,0,0,1-1.58-.61,2.15,2.15,0,0,1-.78-.63,1.66,1.66,0,0,1,.39-2.16,3.3,3.3,0,0,1,1.89-.45,6.68,6.68,0,0,1,1.81.27,7.64,7.64,0,0,1,1.75.72l.13.07.39-2.21-.07,0a7.75,7.75,0,0,0-1.92-.73A8.86,8.86,0,0,0,46,64.67a6.42,6.42,0,0,0-2.58.49,3.93,3.93,0,0,0-1.7,1.39,3.61,3.61,0,0,0-.59,2,3.65,3.65,0,0,0,1,2.66,8,8,0,0,0,3.24,1.7,7.64,7.64,0,0,1,2.32,1,1.49,1.49,0,0,1,.59,1.24,1.57,1.57,0,0,1-.72,1.4,3.66,3.66,0,0,1-2.1.51,8,8,0,0,1-2.14-.32,8.57,8.57,0,0,1-2-.86l-.14-.09-.28,2.27.06,0A7.13,7.13,0,0,0,43,79a10.7,10.7,0,0,0,2.53.32,7,7,0,0,0,2.78-.51,4.1,4.1,0,0,0,1.81-1.44,3.77,3.77,0,0,0,.63-2.14,3.91,3.91,0,0,0-.44-1.87A4.26,4.26,0,0,0,48.9,71.88Z"/><path class="6d17d8d2-c6b5-4f98-9b66-cac245d63627" d="M59.37,71.88a11.53,11.53,0,0,0-2.71-1.18,11.46,11.46,0,0,1-1.59-.61,2.24,2.24,0,0,1-.78-.63,1.55,1.55,0,0,1-.23-.88,1.45,1.45,0,0,1,.63-1.28,3.28,3.28,0,0,1,1.88-.45,6.75,6.75,0,0,1,1.82.27,7.84,7.84,0,0,1,1.75.72l.13.07.38-2.21-.06,0a7.91,7.91,0,0,0-1.92-.73,8.86,8.86,0,0,0-2.15-.27,6.42,6.42,0,0,0-2.58.49,3.88,3.88,0,0,0-1.7,1.39,3.53,3.53,0,0,0-.59,2,3.64,3.64,0,0,0,1,2.66,8,8,0,0,0,3.25,1.7,7.89,7.89,0,0,1,2.32,1,1.52,1.52,0,0,1,.59,1.24,1.59,1.59,0,0,1-.72,1.4,3.7,3.7,0,0,1-2.11.51,8,8,0,0,1-2.13-.32,8.57,8.57,0,0,1-2-.86l-.14-.09-.29,2.27.06,0a7.32,7.32,0,0,0,2.08.82,10.68,10.68,0,0,0,2.52.32,6.93,6.93,0,0,0,2.78-.51,4,4,0,0,0,1.81-1.44,3.7,3.7,0,0,0,.63-2.14,3.88,3.88,0,0,0-.44-1.87A4.17,4.17,0,0,0,59.37,71.88Z"/><path class="6d17d8d2-c6b5-4f98-9b66-cac245d63627" d="M72.79,65.59a7.49,7.49,0,0,0-3.67-.92,7.26,7.26,0,0,0-6.39,3.69A7.41,7.41,0,0,0,61.81,72a7.33,7.33,0,0,0,1,3.8,7,7,0,0,0,2.66,2.6,7.54,7.54,0,0,0,3.65.91,7.2,7.2,0,0,0,3.79-1,7.11,7.11,0,0,0,2.61-2.67,7.62,7.62,0,0,0-.07-7.42A7,7,0,0,0,72.79,65.59ZM71.51,76.42a4.73,4.73,0,0,1-2.39.62,4.58,4.58,0,0,1-2.47-.68A4.51,4.51,0,0,1,65,74.54,5.55,5.55,0,0,1,64.39,72,5.45,5.45,0,0,1,65,69.34a4.54,4.54,0,0,1,1.71-1.79,4.86,4.86,0,0,1,4.87,0,4.53,4.53,0,0,1,1.68,1.82A5.55,5.55,0,0,1,73.87,72a5.48,5.48,0,0,1-.64,2.66A4.6,4.6,0,0,1,71.51,76.42Z"/><polygon class="6d17d8d2-c6b5-4f98-9b66-cac245d63627" points="72.38 61.11 69.45 61.11 67.24 63.81 69.56 63.81 72.38 61.11"/><path class="6d17d8d2-c6b5-4f98-9b66-cac245d63627" d="M86.32,71.66a4.1,4.1,0,0,0,.67-2.3,4.06,4.06,0,0,0-1.37-3.22A5.47,5.47,0,0,0,81.94,65H77.58V79H80V73.8h1.46a7.39,7.39,0,0,0,.86,0L85.51,79l0,0h2.93l-3.88-5.85A4.12,4.12,0,0,0,86.32,71.66ZM80,67h1.7a3.39,3.39,0,0,1,2.18.6,2.13,2.13,0,0,1,.71,1.75c0,1.58-1,2.35-3,2.35H80Z"/><rect class="6d17d8d2-c6b5-4f98-9b66-cac245d63627" x="89.18" y="64.96" width="2.48" height="14.03"/><path class="6d17d8d2-c6b5-4f98-9b66-cac245d63627" d="M103.78,65.59a7.49,7.49,0,0,0-3.67-.92,7.26,7.26,0,0,0-6.39,3.69A7.41,7.41,0,0,0,92.8,72a7.33,7.33,0,0,0,1,3.8,7,7,0,0,0,2.66,2.6,7.54,7.54,0,0,0,3.65.91,7.2,7.2,0,0,0,3.79-1,7.11,7.11,0,0,0,2.61-2.67,7.69,7.69,0,0,0-.07-7.42A7,7,0,0,0,103.78,65.59ZM104.86,72a5.48,5.48,0,0,1-.64,2.66,4.6,4.6,0,0,1-1.72,1.78,4.73,4.73,0,0,1-2.39.62,4.58,4.58,0,0,1-2.47-.68A4.51,4.51,0,0,1,96,74.54a5.85,5.85,0,0,1,0-5.2,4.54,4.54,0,0,1,1.71-1.79,4.86,4.86,0,0,1,4.87,0,4.53,4.53,0,0,1,1.68,1.82A5.55,5.55,0,0,1,104.86,72Z"/><path class="6d17d8d2-c6b5-4f98-9b66-cac245d63627" d="M115.92,71.88a11.82,11.82,0,0,0-2.72-1.18,11.46,11.46,0,0,1-1.59-.61,2.24,2.24,0,0,1-.78-.63,1.55,1.55,0,0,1-.23-.88,1.45,1.45,0,0,1,.63-1.28,3.28,3.28,0,0,1,1.88-.45,6.75,6.75,0,0,1,1.82.27,7.84,7.84,0,0,1,1.75.72l.13.07.38-2.21-.06,0a7.75,7.75,0,0,0-1.92-.73,8.86,8.86,0,0,0-2.15-.27,6.42,6.42,0,0,0-2.58.49,3.88,3.88,0,0,0-1.7,1.39,4,4,0,0,0,.38,4.69,8,8,0,0,0,3.25,1.7,7.89,7.89,0,0,1,2.32,1,1.52,1.52,0,0,1,.59,1.24,1.59,1.59,0,0,1-.72,1.4,3.7,3.7,0,0,1-2.11.51,8,8,0,0,1-2.13-.32,8.57,8.57,0,0,1-2-.86l-.14-.09-.29,2.27.06,0a7.32,7.32,0,0,0,2.08.82,10.68,10.68,0,0,0,2.52.32,6.93,6.93,0,0,0,2.78-.51,4,4,0,0,0,1.81-1.44,3.7,3.7,0,0,0,.63-2.14,3.91,3.91,0,0,0-.44-1.87A4.22,4.22,0,0,0,115.92,71.88Z"/><path class="6d17d8d2-c6b5-4f98-9b66-cac245d63627" d="M130.75,71.86a4.53,4.53,0,0,0,.62-2.37,4.42,4.42,0,0,0-.65-2.4,4.21,4.21,0,0,0-1.78-1.58,5.94,5.94,0,0,0-2.59-.55H122V79h2.4V74.07h2a5.89,5.89,0,0,0,2.66-.58A4.27,4.27,0,0,0,130.75,71.86ZM124.35,67H126a3.21,3.21,0,0,1,2.17.64,2.7,2.7,0,0,1,0,3.7A3.28,3.28,0,0,1,126,72h-1.66Z"/><path class="6d17d8d2-c6b5-4f98-9b66-cac245d63627" d="M138.12,65h-2.58L129.9,79h2.54l1.46-3.88h5.74l1.43,3.81,0,.07h2.65l-5.61-14Zm.75,8.15h-4.22l2.1-5.63Z"/><path class="6d17d8d2-c6b5-4f98-9b66-cac245d63627" d="M162.85,65h-2.58l-5.42,13.5-3.52-5.31a4.15,4.15,0,0,0,2.41-3.79,4.06,4.06,0,0,0-1.38-3.22A5.46,5.46,0,0,0,148.68,65h-4.36V79h2.4V73.8h1.45a7.25,7.25,0,0,0,.86,0l3.22,5.2,0,0h4.9l1.45-3.88h5.75l1.43,3.81,0,.07h2.65l-5.6-14ZM146.72,67h1.69a3.37,3.37,0,0,1,2.18.6,2.13,2.13,0,0,1,.72,1.75c0,1.58-1,2.35-3,2.35h-1.58Zm16.89,6.08h-4.23l2.11-5.63Z"/><polygon class="6d17d8d2-c6b5-4f98-9b66-cac245d63627" points="179.05 73.54 174.36 65.02 174.33 64.97 171.69 64.97 171.69 79 174.09 79 174.09 68.83 178.01 75.92 180.03 75.92 183.97 68.83 183.97 79 186.34 79 186.34 64.97 183.76 64.97 179.05 73.54"/><path class="6d17d8d2-c6b5-4f98-9b66-cac245d63627" d="M198.46,65.59a7.52,7.52,0,0,0-3.67-.92,7.27,7.27,0,0,0-3.79,1,7.16,7.16,0,0,0-2.6,2.67,7.41,7.41,0,0,0-.92,3.62,7.33,7.33,0,0,0,1,3.8,7.06,7.06,0,0,0,2.66,2.6,7.58,7.58,0,0,0,3.66.91,7.22,7.22,0,0,0,3.79-1,7.11,7.11,0,0,0,2.61-2.67,7.41,7.41,0,0,0,.92-3.62,7.26,7.26,0,0,0-1-3.8A6.93,6.93,0,0,0,198.46,65.59Zm-1.28,10.83a4.76,4.76,0,0,1-2.39.62,4.59,4.59,0,0,1-2.48-.68,4.51,4.51,0,0,1-1.67-1.82,5.55,5.55,0,0,1-.59-2.56,5.46,5.46,0,0,1,.64-2.64,4.58,4.58,0,0,1,1.7-1.79,4.87,4.87,0,0,1,4.88,0A4.6,4.6,0,0,1,199,69.42a5.58,5.58,0,0,1,.59,2.56,5.37,5.37,0,0,1-.65,2.66A4.58,4.58,0,0,1,197.18,76.42Z"/><polygon class="6d17d8d2-c6b5-4f98-9b66-cac245d63627" points="198.05 61.11 195.12 61.11 192.91 63.81 195.23 63.81 198.05 61.11"/><polygon class="6d17d8d2-c6b5-4f98-9b66-cac245d63627" points="208.04 76.14 204.09 65.03 204.06 64.97 201.32 64.97 206.67 78.93 206.7 79 209.28 79 214.67 64.97 212.02 64.97 208.04 76.14"/><polygon class="6d17d8d2-c6b5-4f98-9b66-cac245d63627" points="217.66 72.91 223.61 72.91 223.61 70.78 217.66 70.78 217.66 67.08 224.34 67.08 224.34 64.97 215.27 64.97 215.27 79 224.61 79 224.61 76.88 217.66 76.88 217.66 72.91"/><rect class="6d17d8d2-c6b5-4f98-9b66-cac245d63627" x="226.05" y="64.96" width="2.49" height="14.03"/><path class="6d17d8d2-c6b5-4f98-9b66-cac245d63627" d="M239.28,73.33h0a4.17,4.17,0,0,0-1.45-1.45,11.53,11.53,0,0,0-2.71-1.18,11.46,11.46,0,0,1-1.59-.61,2.24,2.24,0,0,1-.78-.63,1.55,1.55,0,0,1-.23-.88,1.45,1.45,0,0,1,.63-1.28,3.28,3.28,0,0,1,1.88-.45,6.75,6.75,0,0,1,1.82.27,7.84,7.84,0,0,1,1.75.72l.13.07.38-2.21-.06,0a7.91,7.91,0,0,0-1.92-.73,8.86,8.86,0,0,0-2.15-.27,6.42,6.42,0,0,0-2.58.49,3.88,3.88,0,0,0-1.7,1.39,3.53,3.53,0,0,0-.59,2,3.64,3.64,0,0,0,1,2.66,8,8,0,0,0,3.25,1.7,7.89,7.89,0,0,1,2.32,1,1.51,1.51,0,0,1,.58,1.24,1.58,1.58,0,0,1-.71,1.4,3.7,3.7,0,0,1-2.11.51,7.92,7.92,0,0,1-2.13-.32,8.39,8.39,0,0,1-2-.86l-.14-.09-.29,2.27.06,0A7.32,7.32,0,0,0,232,79a10.68,10.68,0,0,0,2.52.32,6.93,6.93,0,0,0,2.78-.51,4,4,0,0,0,1.81-1.44,3.7,3.7,0,0,0,.63-2.14A3.91,3.91,0,0,0,239.28,73.33Z"/></svg>